# xmcd
#
# Track frame offsets: 
#        150
#        25165
#        40240
#        62822
#        75445
#        88639
#        108492
#        128400
#        142822
#        161661
#        177764
#        215488
#        237716
#        250657
#        265587
#
# Disc length: 3806 seconds
#
# Revision: 0
# Processed by: cddbd v1.5.2PL0 Copyright (c) Steve Scherf et al.
# Submitted via: ExactAudioCopy v1.3
#
DISCID=bf0edc0f
DTITLE=Steve Earle - Do Not Try This at Home 1 of 3
DYEAR=1997
DGENRE=Acoustic
TTITLE0=Christmas in Washington
TTITLE1=Here I Am
TTITLE2=Taneytown
TTITLE3=Hard Core Troubadour
TTITLE4=My Old Friend the Blues
TTITLE5=Someday
TTITLE6=If You Fall
TTITLE7=Train a Comin'
TTITLE8=You Know the Rest
TTITLE9=Windfall
TTITLE10=Copperhead Road
TTITLE11=Telephone Road
TTITLE12=More Than I Can Do
TTITLE13=Now She's Gone
TTITLE14=Fort Worth Blues
EXTD=
EXTT0=
EXTT1=
EXTT2=
EXTT3=
EXTT4=
EXTT5=
EXTT6=
EXTT7=
EXTT8=
EXTT9=
EXTT10=
EXTT11=
EXTT12=
EXTT13=
EXTT14=
PLAYORDER=
